<?xml version="1.0" encoding="utf-8"?>
<!-- Generated by IcoMoon.io -->
<!DOCTYPE svg PUBLIC "-//W3C//DTD SVG 1.1//EN" "http://www.w3.org/Graphics/SVG/1.1/DTD/svg11.dtd">
<svg version="1.1" xmlns="http://www.w3.org/2000/svg" xmlns:xlink="http://www.w3.org/1999/xlink" width="81" height="72" viewBox="0 0 81 72">
	<path d="M33.75 0v0c18.64 0 33.75 12.228 33.75 27.313s-15.11 27.313-33.75 27.313c-1.79 0-3.547-0.114-5.262-0.331-7.25 7.221-15.621 8.515-23.988 8.706v-1.767c4.518-2.205 8.156-6.22 8.156-10.809 0-0.64-0.050-1.269-0.143-1.884-7.633-5.007-12.514-12.655-12.514-21.227 0-15.084 15.11-27.313 33.75-27.313zM70.031 61.22c0 3.933 2.553 7.376 6.469 9.265v1.515c-7.251-0.163-13.907-1.273-20.19-7.462-1.486 0.186-3.009 0.284-4.56 0.284-6.713 0-12.896-1.811-17.832-4.854 10.172-0.036 19.776-3.294 27.059-9.188 3.671-2.971 6.567-6.457 8.607-10.36 2.163-4.139 3.26-8.549 3.26-13.107 0-0.735-0.032-1.465-0.088-2.191 5.103 4.214 8.245 9.958 8.245 16.29 0 7.347-4.23 13.902-10.845 18.194-0.080 0.527-0.124 1.066-0.124 1.615z" fill="#666666" />
</svg>
