<?xml version="1.0" encoding="utf-8"?>
<!-- Generated by IcoMoon.io -->
<!DOCTYPE svg PUBLIC "-//W3C//DTD SVG 1.1//EN" "http://www.w3.org/Graphics/SVG/1.1/DTD/svg11.dtd">
<svg version="1.1" xmlns="http://www.w3.org/2000/svg" xmlns:xlink="http://www.w3.org/1999/xlink" width="72" height="72" viewBox="0 0 72 72">
	<path d="M21.375 42.75c0 8.077 6.548 14.625 14.625 14.625s14.625-6.548 14.625-14.625-6.548-14.625-14.625-14.625-14.625 6.548-14.625 14.625zM67.5 18h-15.75c-1.125-4.5-2.25-9-6.75-9h-18c-4.5 0-5.625 4.5-6.75 9h-15.75c-2.475 0-4.5 2.025-4.5 4.5v40.5c0 2.475 2.025 4.5 4.5 4.5h63c2.475 0 4.5-2.025 4.5-4.5v-40.5c0-2.475-2.025-4.5-4.5-4.5zM36 62.719c-11.029 0-19.969-8.94-19.969-19.969 0-11.029 8.94-19.969 19.969-19.969 11.029 0 19.969 8.94 19.969 19.969 0 11.029-8.94 19.969-19.969 19.969zM67.5 31.5h-9v-4.5h9v4.5z" fill="#666666" />
</svg>
