<?xml version="1.0" encoding="utf-8"?>
<!-- Generated by IcoMoon.io -->
<!DOCTYPE svg PUBLIC "-//W3C//DTD SVG 1.1//EN" "http://www.w3.org/Graphics/SVG/1.1/DTD/svg11.dtd">
<svg version="1.1" xmlns="http://www.w3.org/2000/svg" xmlns:xlink="http://www.w3.org/1999/xlink" width="72" height="72" viewBox="0 0 72 72">
	<path d="M59.57 40.5c2.475 0 5.056-1.947 5.736-4.327l6.528-22.846c0.68-2.38-0.789-4.327-3.264-4.327h-46.070c0-4.971-4.029-9-9-9h-13.5v9h13.5v38.25c0 3.728 3.022 6.75 6.75 6.75h42.75c2.485 0 4.5-2.015 4.5-4.5s-2.015-4.5-4.5-4.5h-40.5v-4.5h37.070zM22.5 18h40.697l-3.857 13.5h-36.84v-13.5zM27 66.375c0 3.094-2.531 5.625-5.625 5.625h-2.25c-3.094 0-5.625-2.531-5.625-5.625v-2.25c0-3.094 2.531-5.625 5.625-5.625h2.25c3.094 0 5.625 2.531 5.625 5.625v2.25zM67.5 66.375c0 3.094-2.531 5.625-5.625 5.625h-2.25c-3.094 0-5.625-2.531-5.625-5.625v-2.25c0-3.094 2.531-5.625 5.625-5.625h2.25c3.094 0 5.625 2.531 5.625 5.625v2.25z" fill="#666666" />
</svg>
