<?xml version="1.0" encoding="utf-8"?>
<!-- Generated by IcoMoon.io -->
<!DOCTYPE svg PUBLIC "-//W3C//DTD SVG 1.1//EN" "http://www.w3.org/Graphics/SVG/1.1/DTD/svg11.dtd">
<svg version="1.1" xmlns="http://www.w3.org/2000/svg" xmlns:xlink="http://www.w3.org/1999/xlink" width="72" height="72" viewBox="0 0 72 72">
	<path d="M36 0c-19.882 0-36 16.118-36 36s16.118 36 36 36 36-16.118 36-36-16.118-36-36-36zM36 65.25c-16.154 0-29.25-13.096-29.25-29.25s13.096-29.25 29.25-29.25 29.25 13.096 29.25 29.25-13.096 29.25-29.25 29.25zM42.75 29.25l-20.25-11.25h-4.5v4.5l11.25 20.25 20.25 11.25h4.5v-4.5l-11.25-20.25zM36 40.5c-2.485 0-4.5-2.015-4.5-4.5s2.015-4.5 4.5-4.5c2.485 0 4.5 2.015 4.5 4.5 0 2.485-2.015 4.5-4.5 4.5z" fill="#666666" />
</svg>
