<?xml version="1.0" encoding="utf-8"?>
<!-- Generated by IcoMoon.io -->
<!DOCTYPE svg PUBLIC "-//W3C//DTD SVG 1.1//EN" "http://www.w3.org/Graphics/SVG/1.1/DTD/svg11.dtd">
<svg version="1.1" xmlns="http://www.w3.org/2000/svg" xmlns:xlink="http://www.w3.org/1999/xlink" width="72" height="72" viewBox="0 0 72 72">
	<path d="M60.75 0c-6.214 0-11.25 5.037-11.25 11.25v33.75h9v27h13.5v-60.75c0-6.213-5.037-11.25-11.25-11.25zM29.25 0c-1.243 0-2.25 1.007-2.25 2.25v15.75c0 0.621-1.007 1.125-2.25 1.125-1.243 0-2.25-0.504-2.25-1.125v-15.75c0-1.243-1.007-2.25-2.25-2.25-1.243 0-2.25 1.007-2.25 2.25v15.75c0 0.621-1.007 1.125-2.25 1.125-1.243 0-2.25-0.504-2.25-1.125v-15.75c0-1.243-1.007-2.25-2.25-2.25-1.243 0-2.25 1.007-2.25 2.25v15.75c0 0.621-1.007 1.125-2.25 1.125s-2.25-0.504-2.25-1.125v-15.75c0-1.243-1.007-2.25-2.25-2.25s-2.25 1.007-2.25 2.25v20.25c0 1.991 1.762 3.101 3.727 4.5 2.476 1.762 5.273 3.982 5.273 9v36h13.5v-36c0-5.018 2.797-7.238 5.273-9 1.965-1.399 3.727-2.509 3.727-4.5v-20.25c0-1.243-1.007-2.25-2.25-2.25z" fill="#666666" />
</svg>
