<?xml version="1.0" encoding="utf-8"?>
<!-- Generated by IcoMoon.io -->
<!DOCTYPE svg PUBLIC "-//W3C//DTD SVG 1.1//EN" "http://www.w3.org/Graphics/SVG/1.1/DTD/svg11.dtd">
<svg version="1.1" xmlns="http://www.w3.org/2000/svg" xmlns:xlink="http://www.w3.org/1999/xlink" width="72" height="72" viewBox="0 0 72 72">
	<path d="M36 0c-12.426 0-22.5 10.074-22.5 22.5 0 22.5 22.5 49.5 22.5 49.5s22.5-27 22.5-49.5c0-12.426-10.074-22.5-22.5-22.5zM36 36.281c-7.611 0-13.781-6.17-13.781-13.781s6.17-13.781 13.781-13.781 13.781 6.17 13.781 13.781-6.17 13.781-13.781 13.781zM27.281 22.5c0-4.815 3.904-8.719 8.719-8.719s8.719 3.904 8.719 8.719c0 4.815-3.904 8.719-8.719 8.719-4.815 0-8.719-3.904-8.719-8.719z" fill="#666666" />
</svg>
