<?xml version="1.0" encoding="utf-8"?>
<!-- Generated by IcoMoon.io -->
<!DOCTYPE svg PUBLIC "-//W3C//DTD SVG 1.1//EN" "http://www.w3.org/Graphics/SVG/1.1/DTD/svg11.dtd">
<svg version="1.1" xmlns="http://www.w3.org/2000/svg" xmlns:xlink="http://www.w3.org/1999/xlink" width="697" height="72" viewBox="0 0 697 72">
<g transform="translate(0 0)">
	<path d="M60.75 0c-6.214 0-11.25 5.037-11.25 11.25v33.75h9v27h13.5v-60.75c0-6.213-5.037-11.25-11.25-11.25zM29.25 0c-1.243 0-2.25 1.007-2.25 2.25v15.75c0 0.621-1.007 1.125-2.25 1.125-1.243 0-2.25-0.504-2.25-1.125v-15.75c0-1.243-1.007-2.25-2.25-2.25-1.243 0-2.25 1.007-2.25 2.25v15.75c0 0.621-1.007 1.125-2.25 1.125-1.243 0-2.25-0.504-2.25-1.125v-15.75c0-1.243-1.007-2.25-2.25-2.25-1.243 0-2.25 1.007-2.25 2.25v15.75c0 0.621-1.007 1.125-2.25 1.125s-2.25-0.504-2.25-1.125v-15.75c0-1.243-1.007-2.25-2.25-2.25s-2.25 1.007-2.25 2.25v20.25c0 1.991 1.762 3.101 3.727 4.5 2.476 1.762 5.273 3.982 5.273 9v36h13.5v-36c0-5.018 2.797-7.238 5.273-9 1.965-1.399 3.727-2.509 3.727-4.5v-20.25c0-1.243-1.007-2.25-2.25-2.25z" fill="#666666" />
</g>
<g transform="translate(88 0)">
	<path d="M36 4.5l-36 36 6.75 6.75 6.75-6.75 4.5 27h13.5v-13.5h9v13.5h13.5l4.5-27 6.75 6.75 6.75-6.75-36-36zM36 33.364c-3.515 0-6.364-2.849-6.364-6.364s2.849-6.364 6.364-6.364c3.515 0 6.364 2.849 6.364 6.364 0 3.515-2.849 6.364-6.364 6.364z" fill="#666666" />
</g>
<g transform="translate(176 0)">
	<path d="M36 0c-12.426 0-22.5 10.074-22.5 22.5 0 22.5 22.5 49.5 22.5 49.5s22.5-27 22.5-49.5c0-12.426-10.074-22.5-22.5-22.5zM36 36.281c-7.611 0-13.781-6.17-13.781-13.781s6.17-13.781 13.781-13.781 13.781 6.17 13.781 13.781-6.17 13.781-13.781 13.781zM27.281 22.5c0-4.815 3.904-8.719 8.719-8.719s8.719 3.904 8.719 8.719c0 4.815-3.904 8.719-8.719 8.719-4.815 0-8.719-3.904-8.719-8.719z" fill="#666666" />
</g>
<g transform="translate(264 0)">
	<path d="M36 0c-19.882 0-36 16.118-36 36s16.118 36 36 36 36-16.118 36-36-16.118-36-36-36zM36 65.25c-16.154 0-29.25-13.096-29.25-29.25s13.096-29.25 29.25-29.25 29.25 13.096 29.25 29.25-13.096 29.25-29.25 29.25zM42.75 29.25l-20.25-11.25h-4.5v4.5l11.25 20.25 20.25 11.25h4.5v-4.5l-11.25-20.25zM36 40.5c-2.485 0-4.5-2.015-4.5-4.5s2.015-4.5 4.5-4.5c2.485 0 4.5 2.015 4.5 4.5 0 2.485-2.015 4.5-4.5 4.5z" fill="#666666" />
</g>
<g transform="translate(352 0)">
	<path d="M33.75 0v0c18.64 0 33.75 12.228 33.75 27.313s-15.11 27.313-33.75 27.313c-1.79 0-3.547-0.114-5.262-0.331-7.25 7.221-15.621 8.515-23.988 8.706v-1.767c4.518-2.205 8.156-6.22 8.156-10.809 0-0.64-0.050-1.269-0.143-1.884-7.633-5.007-12.514-12.655-12.514-21.227 0-15.084 15.11-27.313 33.75-27.313zM70.031 61.22c0 3.933 2.553 7.376 6.469 9.265v1.515c-7.251-0.163-13.907-1.273-20.19-7.462-1.486 0.186-3.009 0.284-4.56 0.284-6.713 0-12.896-1.811-17.832-4.854 10.172-0.036 19.776-3.294 27.059-9.188 3.671-2.971 6.567-6.457 8.607-10.36 2.163-4.139 3.26-8.549 3.26-13.107 0-0.735-0.032-1.465-0.088-2.191 5.103 4.214 8.245 9.958 8.245 16.29 0 7.347-4.23 13.902-10.845 18.194-0.080 0.527-0.124 1.066-0.124 1.615z" fill="#666666" />
</g>
<g transform="translate(449 0)">
	<path d="M59.57 40.5c2.475 0 5.056-1.947 5.736-4.327l6.528-22.846c0.68-2.38-0.789-4.327-3.264-4.327h-46.070c0-4.971-4.029-9-9-9h-13.5v9h13.5v38.25c0 3.728 3.022 6.75 6.75 6.75h42.75c2.485 0 4.5-2.015 4.5-4.5s-2.015-4.5-4.5-4.5h-40.5v-4.5h37.070zM22.5 18h40.697l-3.857 13.5h-36.84v-13.5zM27 66.375c0 3.094-2.531 5.625-5.625 5.625h-2.25c-3.094 0-5.625-2.531-5.625-5.625v-2.25c0-3.094 2.531-5.625 5.625-5.625h2.25c3.094 0 5.625 2.531 5.625 5.625v2.25zM67.5 66.375c0 3.094-2.531 5.625-5.625 5.625h-2.25c-3.094 0-5.625-2.531-5.625-5.625v-2.25c0-3.094 2.531-5.625 5.625-5.625h2.25c3.094 0 5.625 2.531 5.625 5.625v2.25z" fill="#666666" />
</g>
<g transform="translate(537 0)">
	<path d="M49.5 72h22.5l-18-72h-13.5l2.25 18h-13.5l2.25-18h-13.5l-18 72h22.5l2.25-18h22.5l2.25 18zM25.875 45l2.25-18h15.75l2.25 18h-20.25z" fill="#666666" />
</g>
<g transform="translate(625 0)">
	<path d="M21.375 42.75c0 8.077 6.548 14.625 14.625 14.625s14.625-6.548 14.625-14.625-6.548-14.625-14.625-14.625-14.625 6.548-14.625 14.625zM67.5 18h-15.75c-1.125-4.5-2.25-9-6.75-9h-18c-4.5 0-5.625 4.5-6.75 9h-15.75c-2.475 0-4.5 2.025-4.5 4.5v40.5c0 2.475 2.025 4.5 4.5 4.5h63c2.475 0 4.5-2.025 4.5-4.5v-40.5c0-2.475-2.025-4.5-4.5-4.5zM36 62.719c-11.029 0-19.969-8.94-19.969-19.969 0-11.029 8.94-19.969 19.969-19.969 11.029 0 19.969 8.94 19.969 19.969 0 11.029-8.94 19.969-19.969 19.969zM67.5 31.5h-9v-4.5h9v4.5z" fill="#666666" />
</g>
</svg>
